<svg width="89" height="89" viewBox="0 0 89 89" fill="none" xmlns="http://www.w3.org/2000/svg">
<path d="M18.5416 11.125V77.875C18.5437 78.5508 18.7301 79.2133 19.0807 79.791C19.4313 80.3688 19.9328 80.84 20.5313 81.1539C21.1298 81.4678 21.8025 81.6126 22.4772 81.5726C23.1518 81.5326 23.8028 81.3094 24.36 80.927L72.5683 47.552C74.5671 46.1688 74.5671 42.8387 72.5683 41.4518L24.36 8.07676C23.8039 7.69045 23.1526 7.4639 22.4769 7.42174C21.8011 7.37958 21.1267 7.52342 20.527 7.83763C19.9273 8.15183 19.4251 8.62439 19.0751 9.20396C18.725 9.78353 18.5405 10.4479 18.5416 11.125Z" fill="black"/>
</svg>
