<svg width="173" height="173" viewBox="0 0 173 173" fill="none" xmlns="http://www.w3.org/2000/svg">
<path d="M14.4165 72.0833C20.039 44.5763 40.8711 22.562 67.8014 15.0654C70.0648 14.4383 71.1893 14.1211 71.8021 14.7915C72.4148 15.469 71.9606 16.5791 71.0668 18.8137L64.8748 32.4375M100.917 14.4166C128.424 20.0391 150.438 40.8712 157.934 67.8015C158.562 70.065 158.879 71.1895 158.208 71.8022C157.531 72.4149 156.421 71.9608 154.186 71.0669L140.562 64.875M158.583 100.917C152.961 128.424 132.129 150.438 105.198 157.935C102.935 158.562 101.81 158.879 101.198 158.208C100.585 157.531 101.039 156.421 101.933 154.186L108.125 140.562M72.0832 158.583C44.5762 152.961 22.5619 132.129 15.0653 105.198C14.4381 102.935 14.121 101.81 14.7913 101.198C15.4689 100.585 16.579 101.039 18.8136 101.933L32.4373 108.125M86.4998 80.0053C77.0353 86.4928 65.5885 99.3236 61.2707 118.937M67.578 101.666C52.6423 67.1095 82.7731 55.4537 105.703 54.1562C108.471 53.9976 109.855 53.9183 110.842 54.9275C111.837 55.9366 111.779 57.3783 111.664 60.2472C110.72 84.15 101.19 117.034 67.578 101.666Z" stroke="#4455D4" stroke-width="4" stroke-linecap="round" stroke-linejoin="round"/>
</svg>
